<svg width="201" height="40" viewBox="0 0 201 40" fill="none" xmlns="http://www.w3.org/2000/svg">
<path d="M15.64 4.566C15.5267 4.75867 15.4077 4.90033 15.283 4.991C15.1583 5.08167 14.9997 5.127 14.807 5.127C14.603 5.127 14.3707 5.03633 14.11 4.855C13.8493 4.66233 13.5207 4.45267 13.124 4.226C12.7387 3.988 12.274 3.77833 11.73 3.597C11.186 3.40433 10.5343 3.308 9.775 3.308C9.061 3.308 8.432 3.40433 7.888 3.597C7.35533 3.77833 6.90767 4.03333 6.545 4.362C6.18233 4.67933 5.90467 5.059 5.712 5.501C5.53067 5.93167 5.44 6.402 5.44 6.912C5.44 7.56933 5.60433 8.11333 5.933 8.544C6.273 8.97467 6.715 9.343 7.259 9.649C7.803 9.955 8.42067 10.2213 9.112 10.448C9.80333 10.6747 10.5117 10.9127 11.237 11.162C11.9623 11.4 12.6707 11.6777 13.362 11.995C14.0533 12.3123 14.671 12.7147 15.215 13.202C15.759 13.678 16.1953 14.2673 16.524 14.97C16.864 15.6613 17.034 16.5113 17.034 17.52C17.034 18.5967 16.847 19.6053 16.473 20.546C16.1103 21.4867 15.5777 22.3083 14.875 23.011C14.1723 23.7137 13.3053 24.269 12.274 24.677C11.254 25.0737 10.0923 25.272 8.789 25.272C8.007 25.272 7.24767 25.1927 6.511 25.034C5.77433 24.8867 5.07733 24.677 4.42 24.405C3.76267 24.1217 3.145 23.7873 2.567 23.402C2.00033 23.0053 1.49033 22.5633 1.037 22.076L2.074 20.342C2.176 20.206 2.295 20.0927 2.431 20.002C2.57833 19.9113 2.74267 19.866 2.924 19.866C3.162 19.866 3.434 19.9907 3.74 20.24C4.05733 20.4893 4.44267 20.767 4.896 21.073C5.36067 21.3677 5.91033 21.6397 6.545 21.889C7.191 22.1383 7.973 22.263 8.891 22.263C9.639 22.263 10.3077 22.1667 10.897 21.974C11.4863 21.77 11.9793 21.4867 12.376 21.124C12.784 20.75 13.0957 20.3023 13.311 19.781C13.5263 19.2597 13.634 18.6817 13.634 18.047C13.634 17.333 13.4697 16.7493 13.141 16.296C12.8123 15.8427 12.376 15.463 11.832 15.157C11.288 14.851 10.6703 14.5903 9.979 14.375C9.28767 14.1597 8.57933 13.9387 7.854 13.712C7.12867 13.474 6.42033 13.202 5.729 12.896C5.03767 12.59 4.42 12.1933 3.876 11.706C3.332 11.2073 2.89567 10.5897 2.567 9.853C2.23833 9.105 2.074 8.187 2.074 7.099C2.074 6.22633 2.244 5.382 2.584 4.566C2.924 3.75 3.417 3.03033 4.063 2.407C4.72033 1.77233 5.525 1.268 6.477 0.893998C7.429 0.508666 8.517 0.316 9.741 0.316C11.1123 0.316 12.3703 0.536999 13.515 0.978998C14.671 1.40966 15.674 2.033 16.524 2.849L15.64 4.566ZM30.1051 17.333C28.7565 17.3783 27.6118 17.486 26.6711 17.656C25.7305 17.8147 24.9655 18.03 24.3761 18.302C23.7868 18.574 23.3618 18.897 23.1011 19.271C22.8405 19.6337 22.7101 20.0417 22.7101 20.495C22.7101 20.9257 22.7781 21.2997 22.9141 21.617C23.0615 21.923 23.2541 22.178 23.4921 22.382C23.7415 22.5747 24.0305 22.7163 24.3591 22.807C24.6878 22.8977 25.0448 22.943 25.4301 22.943C25.9401 22.943 26.4048 22.892 26.8241 22.79C27.2548 22.688 27.6571 22.5463 28.0311 22.365C28.4051 22.1723 28.7621 21.94 29.1021 21.668C29.4421 21.396 29.7765 21.0843 30.1051 20.733V17.333ZM20.3811 10.142C21.3445 9.224 22.3871 8.53833 23.5091 8.085C24.6425 7.63167 25.8835 7.405 27.2321 7.405C28.2181 7.405 29.0908 7.56933 29.8501 7.898C30.6095 8.21533 31.2498 8.663 31.7711 9.241C32.2925 9.819 32.6835 10.5103 32.9441 11.315C33.2161 12.1197 33.3521 13.0093 33.3521 13.984V25H31.8731C31.5445 25 31.2951 24.949 31.1251 24.847C30.9551 24.7337 30.8191 24.5297 30.7171 24.235L30.3601 22.722C29.9181 23.13 29.4818 23.4927 29.0511 23.81C28.6205 24.116 28.1671 24.3823 27.6911 24.609C27.2265 24.8243 26.7278 24.9887 26.1951 25.102C25.6625 25.2153 25.0731 25.272 24.4271 25.272C23.7471 25.272 23.1068 25.1813 22.5061 25C21.9168 24.8073 21.4011 24.5183 20.9591 24.133C20.5171 23.7477 20.1658 23.266 19.9051 22.688C19.6558 22.11 19.5311 21.4357 19.5311 20.665C19.5311 19.985 19.7125 19.3333 20.0751 18.71C20.4491 18.0753 21.0498 17.5087 21.8771 17.01C22.7158 16.5113 23.8038 16.1033 25.1411 15.786C26.4898 15.4687 28.1445 15.2873 30.1051 15.242V13.984C30.1051 12.6807 29.8275 11.706 29.2721 11.06C28.7168 10.414 27.9008 10.091 26.8241 10.091C26.0988 10.091 25.4868 10.1817 24.9881 10.363C24.5008 10.5443 24.0758 10.7483 23.7131 10.975C23.3618 11.1903 23.0501 11.3887 22.7781 11.57C22.5175 11.7513 22.2455 11.842 21.9621 11.842C21.7355 11.842 21.5371 11.7797 21.3671 11.655C21.2085 11.5303 21.0781 11.383 20.9761 11.213L20.3811 10.142ZM37.7899 25V7.728H39.7789C40.2436 7.728 40.5326 7.949 40.6459 8.391L40.8839 10.04C41.5186 9.28067 42.2213 8.663 42.9919 8.187C43.7739 7.69967 44.6863 7.456 45.7289 7.456C46.8736 7.456 47.8029 7.77333 48.5169 8.408C49.2309 9.03133 49.7523 9.88133 50.0809 10.958C50.3303 10.346 50.6533 9.819 51.0499 9.377C51.4466 8.935 51.8886 8.57233 52.3759 8.289C52.8633 8.00567 53.3789 7.796 53.9229 7.66C54.4783 7.524 55.0393 7.456 55.6059 7.456C56.5239 7.456 57.3399 7.60333 58.0539 7.898C58.7793 8.18133 59.3913 8.60067 59.8899 9.156C60.3886 9.71133 60.7683 10.397 61.0289 11.213C61.2896 12.029 61.4199 12.9583 61.4199 14.001V25H58.0879V14.001C58.0879 12.709 57.8046 11.7343 57.2379 11.077C56.6826 10.4197 55.8666 10.091 54.7899 10.091C54.3139 10.091 53.8606 10.176 53.4299 10.346C52.9993 10.5047 52.6196 10.7483 52.2909 11.077C51.9736 11.4057 51.7186 11.8137 51.5259 12.301C51.3446 12.7883 51.2539 13.355 51.2539 14.001V25H47.9219V14.001C47.9219 12.6637 47.6556 11.6777 47.1229 11.043C46.5903 10.4083 45.8083 10.091 44.7769 10.091C44.0629 10.091 43.3999 10.278 42.7879 10.652C42.1759 11.026 41.6149 11.536 41.1049 12.182V25H37.7899ZM95.2874 0.587998L85.3594 25H82.1124L72.1844 0.587998H75.0744C75.3917 0.587998 75.6467 0.667332 75.8394 0.825999C76.0434 0.984665 76.1964 1.18867 76.2984 1.438L82.8944 18.03C83.0531 18.438 83.2061 18.8857 83.3534 19.373C83.5121 19.8603 83.6537 20.3703 83.7784 20.903C83.8917 20.3703 84.0164 19.8603 84.1524 19.373C84.2884 18.8857 84.4357 18.438 84.5944 18.03L91.1734 1.438C91.2527 1.21133 91.3944 1.013 91.5984 0.842998C91.8137 0.672998 92.0744 0.587998 92.3804 0.587998H95.2874ZM109.096 14.443C109.096 13.7857 109 13.1793 108.807 12.624C108.626 12.0687 108.354 11.587 107.991 11.179C107.629 10.771 107.187 10.4537 106.665 10.227C106.144 10.0003 105.543 9.887 104.863 9.887C103.469 9.887 102.37 10.2893 101.565 11.094C100.772 11.8987 100.268 13.015 100.052 14.443H109.096ZM111.833 22.535C111.425 23.011 110.955 23.4247 110.422 23.776C109.89 24.116 109.323 24.3937 108.722 24.609C108.122 24.8243 107.498 24.983 106.852 25.085C106.218 25.187 105.589 25.238 104.965 25.238C103.775 25.238 102.67 25.0397 101.65 24.643C100.642 24.235 99.7632 23.6457 99.0152 22.875C98.2785 22.093 97.7005 21.1297 97.2812 19.985C96.8732 18.829 96.6692 17.503 96.6692 16.007C96.6692 14.8057 96.8562 13.6893 97.2302 12.658C97.6042 11.6153 98.1368 10.7087 98.8282 9.938C99.5308 9.16733 100.387 8.561 101.395 8.119C102.404 7.677 103.537 7.456 104.795 7.456C105.849 7.456 106.818 7.63167 107.702 7.983C108.598 8.323 109.368 8.82167 110.014 9.479C110.66 10.1363 111.165 10.9467 111.527 11.91C111.901 12.8733 112.088 13.9727 112.088 15.208C112.088 15.718 112.032 16.0637 111.918 16.245C111.805 16.415 111.595 16.5 111.289 16.5H99.9672C100.001 17.5313 100.149 18.4323 100.409 19.203C100.67 19.9623 101.027 20.597 101.48 21.107C101.945 21.617 102.495 21.9967 103.129 22.246C103.764 22.4953 104.472 22.62 105.254 22.62C105.991 22.62 106.626 22.535 107.158 22.365C107.702 22.195 108.167 22.0137 108.552 21.821C108.949 21.617 109.278 21.43 109.538 21.26C109.81 21.09 110.048 21.005 110.252 21.005C110.524 21.005 110.734 21.107 110.881 21.311L111.833 22.535ZM118.779 11.043C119.335 9.90967 120.003 9.02 120.785 8.374C121.567 7.728 122.508 7.405 123.607 7.405C123.981 7.405 124.333 7.45033 124.661 7.541C125.001 7.62033 125.296 7.745 125.545 7.915L125.324 10.414C125.245 10.72 125.058 10.873 124.763 10.873C124.605 10.873 124.367 10.8447 124.049 10.788C123.732 10.72 123.392 10.686 123.029 10.686C122.497 10.686 122.026 10.7653 121.618 10.924C121.21 11.0713 120.842 11.298 120.513 11.604C120.196 11.8987 119.913 12.267 119.663 12.709C119.414 13.1397 119.182 13.6327 118.966 14.188V25H115.651V7.728H117.555C117.918 7.728 118.162 7.796 118.286 7.932C118.422 8.05667 118.519 8.28333 118.575 8.612L118.779 11.043ZM128.102 25V7.728H130.091C130.556 7.728 130.845 7.949 130.958 8.391L131.196 10.04C131.831 9.28067 132.534 8.663 133.304 8.187C134.086 7.69967 134.999 7.456 136.041 7.456C137.186 7.456 138.115 7.77333 138.829 8.408C139.543 9.03133 140.065 9.88133 140.393 10.958C140.643 10.346 140.966 9.819 141.362 9.377C141.759 8.935 142.201 8.57233 142.688 8.289C143.176 8.00567 143.691 7.796 144.235 7.66C144.791 7.524 145.352 7.456 145.918 7.456C146.836 7.456 147.652 7.60333 148.366 7.898C149.092 8.18133 149.704 8.60067 150.202 9.156C150.701 9.71133 151.081 10.397 151.341 11.213C151.602 12.029 151.732 12.9583 151.732 14.001V25H148.4V14.001C148.4 12.709 148.117 11.7343 147.55 11.077C146.995 10.4197 146.179 10.091 145.102 10.091C144.626 10.091 144.173 10.176 143.742 10.346C143.312 10.5047 142.932 10.7483 142.603 11.077C142.286 11.4057 142.031 11.8137 141.838 12.301C141.657 12.7883 141.566 13.355 141.566 14.001V25H138.234V14.001C138.234 12.6637 137.968 11.6777 137.435 11.043C136.903 10.4083 136.121 10.091 135.089 10.091C134.375 10.091 133.712 10.278 133.1 10.652C132.488 11.026 131.927 11.536 131.417 12.182V25H128.102ZM167.633 14.443C167.633 13.7857 167.537 13.1793 167.344 12.624C167.163 12.0687 166.891 11.587 166.528 11.179C166.166 10.771 165.724 10.4537 165.202 10.227C164.681 10.0003 164.08 9.887 163.4 9.887C162.006 9.887 160.907 10.2893 160.102 11.094C159.309 11.8987 158.805 13.015 158.589 14.443H167.633ZM170.37 22.535C169.962 23.011 169.492 23.4247 168.959 23.776C168.427 24.116 167.86 24.3937 167.259 24.609C166.659 24.8243 166.035 24.983 165.389 25.085C164.755 25.187 164.126 25.238 163.502 25.238C162.312 25.238 161.207 25.0397 160.187 24.643C159.179 24.235 158.3 23.6457 157.552 22.875C156.816 22.093 156.238 21.1297 155.818 19.985C155.41 18.829 155.206 17.503 155.206 16.007C155.206 14.8057 155.393 13.6893 155.767 12.658C156.141 11.6153 156.674 10.7087 157.365 9.938C158.068 9.16733 158.924 8.561 159.932 8.119C160.941 7.677 162.074 7.456 163.332 7.456C164.386 7.456 165.355 7.63167 166.239 7.983C167.135 8.323 167.905 8.82167 168.551 9.479C169.197 10.1363 169.702 10.9467 170.064 11.91C170.438 12.8733 170.625 13.9727 170.625 15.208C170.625 15.718 170.569 16.0637 170.455 16.245C170.342 16.415 170.132 16.5 169.826 16.5H158.504C158.538 17.5313 158.686 18.4323 158.946 19.203C159.207 19.9623 159.564 20.597 160.017 21.107C160.482 21.617 161.032 21.9967 161.666 22.246C162.301 22.4953 163.009 22.62 163.791 22.62C164.528 22.62 165.163 22.535 165.695 22.365C166.239 22.195 166.704 22.0137 167.089 21.821C167.486 21.617 167.815 21.43 168.075 21.26C168.347 21.09 168.585 21.005 168.789 21.005C169.061 21.005 169.271 21.107 169.418 21.311L170.37 22.535ZM177.656 7.728V25H174.341V7.728H177.656ZM178.285 2.39C178.285 2.696 178.223 2.99066 178.098 3.274C177.974 3.546 177.804 3.78967 177.588 4.005C177.384 4.209 177.141 4.37333 176.857 4.498C176.574 4.61133 176.279 4.668 175.973 4.668C175.667 4.668 175.378 4.61133 175.106 4.498C174.834 4.37333 174.591 4.209 174.375 4.005C174.171 3.78967 174.007 3.546 173.882 3.274C173.769 2.99066 173.712 2.696 173.712 2.39C173.712 2.07267 173.769 1.778 173.882 1.506C174.007 1.22267 174.171 0.978999 174.375 0.774999C174.591 0.559665 174.834 0.395331 175.106 0.281998C175.378 0.157332 175.667 0.0949994 175.973 0.0949994C176.279 0.0949994 176.574 0.157332 176.857 0.281998C177.141 0.395331 177.384 0.559665 177.588 0.774999C177.804 0.978999 177.974 1.22267 178.098 1.506C178.223 1.778 178.285 2.07267 178.285 2.39ZM185.584 11.043C186.139 9.90967 186.808 9.02 187.59 8.374C188.372 7.728 189.313 7.405 190.412 7.405C190.786 7.405 191.137 7.45033 191.466 7.541C191.806 7.62033 192.101 7.745 192.35 7.915L192.129 10.414C192.05 10.72 191.863 10.873 191.568 10.873C191.409 10.873 191.171 10.8447 190.854 10.788C190.537 10.72 190.197 10.686 189.834 10.686C189.301 10.686 188.831 10.7653 188.423 10.924C188.015 11.0713 187.647 11.298 187.318 11.604C187.001 11.8987 186.717 12.267 186.468 12.709C186.219 13.1397 185.986 13.6327 185.771 14.188V25H182.456V7.728H184.36C184.723 7.728 184.966 7.796 185.091 7.932C185.227 8.05667 185.323 8.28333 185.38 8.612L185.584 11.043ZM194.363 23.011C194.363 22.705 194.42 22.416 194.533 22.144C194.646 21.872 194.799 21.634 194.992 21.43C195.196 21.226 195.434 21.0673 195.706 20.954C195.978 20.8293 196.273 20.767 196.59 20.767C196.896 20.767 197.185 20.8293 197.457 20.954C197.729 21.0673 197.967 21.226 198.171 21.43C198.375 21.634 198.534 21.872 198.647 22.144C198.772 22.416 198.834 22.705 198.834 23.011C198.834 23.3283 198.772 23.623 198.647 23.895C198.534 24.167 198.375 24.405 198.171 24.609C197.967 24.813 197.729 24.9717 197.457 25.085C197.185 25.1983 196.896 25.255 196.59 25.255C196.273 25.255 195.978 25.1983 195.706 25.085C195.434 24.9717 195.196 24.813 194.992 24.609C194.799 24.405 194.646 24.167 194.533 23.895C194.42 23.623 194.363 23.3283 194.363 23.011Z" fill="#28262B"/>
<path d="M5.02538 36.076C5.38138 36.076 5.69938 36.016 5.97938 35.896C6.25938 35.776 6.49538 35.608 6.68738 35.392C6.88338 35.176 7.03138 34.918 7.13138 34.618C7.23538 34.318 7.28738 33.988 7.28738 33.628V28.402H8.44538V33.628C8.44538 34.124 8.36538 34.584 8.20538 35.008C8.04938 35.432 7.82338 35.8 7.52737 36.112C7.23538 36.42 6.87738 36.662 6.45338 36.838C6.02938 37.014 5.55338 37.102 5.02538 37.102C4.49738 37.102 4.02138 37.014 3.59738 36.838C3.17338 36.662 2.81338 36.42 2.51738 36.112C2.22138 35.8 1.99338 35.432 1.83338 35.008C1.67738 34.584 1.59938 34.124 1.59938 33.628V28.402H2.75738V33.622C2.75738 33.982 2.80738 34.312 2.90738 34.612C3.01138 34.912 3.15938 35.17 3.35138 35.386C3.54738 35.602 3.78538 35.772 4.06538 35.896C4.34938 36.016 4.66938 36.076 5.02538 36.076ZM17.0896 37H15.9376C15.8496 37 15.7796 36.978 15.7276 36.934C15.6796 36.886 15.6396 36.834 15.6076 36.778L13.3036 33.166C13.2716 33.262 13.2356 33.344 13.1956 33.412L10.9516 36.778C10.9116 36.834 10.8676 36.886 10.8196 36.934C10.7756 36.978 10.7136 37 10.6336 37H9.55359L12.5116 32.584L9.67359 28.402H10.8316C10.9156 28.402 10.9776 28.416 11.0176 28.444C11.0576 28.472 11.0936 28.512 11.1256 28.564L13.3696 32.008C13.3976 31.924 13.4396 31.832 13.4956 31.732L15.6136 28.588C15.6456 28.532 15.6836 28.488 15.7276 28.456C15.7716 28.42 15.8236 28.402 15.8836 28.402H16.9936L14.1436 32.53L17.0896 37ZM25.1029 32.368C24.9029 32.1 24.6869 31.914 24.4549 31.81C24.2229 31.702 23.9629 31.648 23.6749 31.648C23.1109 31.648 22.6769 31.85 22.3729 32.254C22.0689 32.658 21.9169 33.234 21.9169 33.982C21.9169 34.378 21.9509 34.718 22.0189 35.002C22.0869 35.282 22.1869 35.514 22.3189 35.698C22.4509 35.878 22.6129 36.01 22.8049 36.094C22.9969 36.178 23.2149 36.22 23.4589 36.22C23.8109 36.22 24.1169 36.14 24.3769 35.98C24.6409 35.82 24.8829 35.594 25.1029 35.302V32.368ZM26.1709 28.162V37H25.5349C25.3829 37 25.2869 36.926 25.2469 36.778L25.1509 36.04C24.8909 36.352 24.5949 36.604 24.2629 36.796C23.9309 36.988 23.5469 37.084 23.1109 37.084C22.7629 37.084 22.4469 37.018 22.1629 36.886C21.8789 36.75 21.6369 36.552 21.4369 36.292C21.2369 36.032 21.0829 35.708 20.9749 35.32C20.8669 34.932 20.8129 34.486 20.8129 33.982C20.8129 33.534 20.8729 33.118 20.9929 32.734C21.1129 32.346 21.2849 32.01 21.5089 31.726C21.7329 31.442 22.0069 31.22 22.3309 31.06C22.6589 30.896 23.0269 30.814 23.4349 30.814C23.8069 30.814 24.1249 30.878 24.3889 31.006C24.6569 31.13 24.8949 31.304 25.1029 31.528V28.162H26.1709ZM31.9257 33.298C31.9257 33.05 31.8897 32.824 31.8177 32.62C31.7497 32.412 31.6477 32.234 31.5117 32.086C31.3797 31.934 31.2177 31.818 31.0257 31.738C30.8337 31.654 30.6157 31.612 30.3717 31.612C29.8597 31.612 29.4537 31.762 29.1537 32.062C28.8577 32.358 28.6737 32.77 28.6017 33.298H31.9257ZM32.7897 36.148C32.6577 36.308 32.4997 36.448 32.3157 36.568C32.1317 36.684 31.9337 36.78 31.7217 36.856C31.5137 36.932 31.2977 36.988 31.0737 37.024C30.8497 37.064 30.6277 37.084 30.4077 37.084C29.9877 37.084 29.5997 37.014 29.2437 36.874C28.8917 36.73 28.5857 36.522 28.3257 36.25C28.0697 35.974 27.8697 35.634 27.7257 35.23C27.5817 34.826 27.5097 34.362 27.5097 33.838C27.5097 33.414 27.5737 33.018 27.7017 32.65C27.8337 32.282 28.0217 31.964 28.2657 31.696C28.5097 31.424 28.8077 31.212 29.1597 31.06C29.5117 30.904 29.9077 30.826 30.3477 30.826C30.7117 30.826 31.0477 30.888 31.3557 31.012C31.6677 31.132 31.9357 31.308 32.1597 31.54C32.3877 31.768 32.5657 32.052 32.6937 32.392C32.8217 32.728 32.8857 33.112 32.8857 33.544C32.8857 33.712 32.8677 33.824 32.8317 33.88C32.7957 33.936 32.7277 33.964 32.6277 33.964H28.5657C28.5777 34.348 28.6297 34.682 28.7217 34.966C28.8177 35.25 28.9497 35.488 29.1177 35.68C29.2857 35.868 29.4857 36.01 29.7177 36.106C29.9497 36.198 30.2097 36.244 30.4977 36.244C30.7657 36.244 30.9957 36.214 31.1877 36.154C31.3837 36.09 31.5517 36.022 31.6917 35.95C31.8317 35.878 31.9477 35.812 32.0397 35.752C32.1357 35.688 32.2177 35.656 32.2857 35.656C32.3737 35.656 32.4417 35.69 32.4897 35.758L32.7897 36.148ZM37.7376 31.924C37.6896 32.012 37.6156 32.056 37.5156 32.056C37.4556 32.056 37.3876 32.034 37.3116 31.99C37.2356 31.946 37.1416 31.898 37.0296 31.846C36.9216 31.79 36.7916 31.74 36.6396 31.696C36.4876 31.648 36.3076 31.624 36.0996 31.624C35.9196 31.624 35.7576 31.648 35.6136 31.696C35.4696 31.74 35.3456 31.802 35.2416 31.882C35.1416 31.962 35.0636 32.056 35.0076 32.164C34.9556 32.268 34.9296 32.382 34.9296 32.506C34.9296 32.662 34.9736 32.792 35.0616 32.896C35.1536 33 35.2736 33.09 35.4216 33.166C35.5696 33.242 35.7376 33.31 35.9256 33.37C36.1136 33.426 36.3056 33.488 36.5016 33.556C36.7016 33.62 36.8956 33.692 37.0836 33.772C37.2716 33.852 37.4396 33.952 37.5876 34.072C37.7356 34.192 37.8536 34.34 37.9416 34.516C38.0336 34.688 38.0796 34.896 38.0796 35.14C38.0796 35.42 38.0296 35.68 37.9296 35.92C37.8296 36.156 37.6816 36.362 37.4856 36.538C37.2896 36.71 37.0496 36.846 36.7656 36.946C36.4816 37.046 36.1536 37.096 35.7816 37.096C35.3576 37.096 34.9736 37.028 34.6296 36.892C34.2856 36.752 33.9936 36.574 33.7536 36.358L34.0056 35.95C34.0376 35.898 34.0756 35.858 34.1196 35.83C34.1636 35.802 34.2196 35.788 34.2876 35.788C34.3596 35.788 34.4356 35.816 34.5156 35.872C34.5956 35.928 34.6916 35.99 34.8036 36.058C34.9196 36.126 35.0596 36.188 35.2236 36.244C35.3876 36.3 35.5916 36.328 35.8356 36.328C36.0436 36.328 36.2256 36.302 36.3816 36.25C36.5376 36.194 36.6676 36.12 36.7716 36.028C36.8756 35.936 36.9516 35.83 36.9996 35.71C37.0516 35.59 37.0776 35.462 37.0776 35.326C37.0776 35.158 37.0316 35.02 36.9396 34.912C36.8516 34.8 36.7336 34.706 36.5856 34.63C36.4376 34.55 36.2676 34.482 36.0756 34.426C35.8876 34.366 35.6936 34.304 35.4936 34.24C35.2976 34.176 35.1036 34.104 34.9116 34.024C34.7236 33.94 34.5556 33.836 34.4076 33.712C34.2596 33.588 34.1396 33.436 34.0476 33.256C33.9596 33.072 33.9156 32.85 33.9156 32.59C33.9156 32.358 33.9636 32.136 34.0596 31.924C34.1556 31.708 34.2956 31.52 34.4796 31.36C34.6636 31.196 34.8896 31.066 35.1576 30.97C35.4256 30.874 35.7316 30.826 36.0756 30.826C36.4756 30.826 36.8336 30.89 37.1496 31.018C37.4696 31.142 37.7456 31.314 37.9776 31.534L37.7376 31.924ZM40.517 30.922V37H39.449V30.922H40.517ZM40.745 29.014C40.745 29.118 40.723 29.216 40.679 29.308C40.639 29.396 40.583 29.476 40.511 29.548C40.443 29.616 40.361 29.67 40.265 29.71C40.173 29.75 40.075 29.77 39.971 29.77C39.867 29.77 39.769 29.75 39.677 29.71C39.589 29.67 39.511 29.616 39.443 29.548C39.375 29.476 39.321 29.396 39.281 29.308C39.241 29.216 39.221 29.118 39.221 29.014C39.221 28.91 39.241 28.812 39.281 28.72C39.321 28.624 39.375 28.542 39.443 28.474C39.511 28.402 39.589 28.346 39.677 28.306C39.769 28.266 39.867 28.246 39.971 28.246C40.075 28.246 40.173 28.266 40.265 28.306C40.361 28.346 40.443 28.402 40.511 28.474C40.583 28.542 40.639 28.624 40.679 28.72C40.723 28.812 40.745 28.91 40.745 29.014ZM44.3898 34.03C44.6058 34.03 44.7958 34 44.9598 33.94C45.1238 33.88 45.2618 33.796 45.3738 33.688C45.4858 33.58 45.5698 33.452 45.6258 33.304C45.6818 33.152 45.7098 32.986 45.7098 32.806C45.7098 32.434 45.5958 32.138 45.3678 31.918C45.1438 31.698 44.8178 31.588 44.3898 31.588C43.9578 31.588 43.6278 31.698 43.3998 31.918C43.1758 32.138 43.0638 32.434 43.0638 32.806C43.0638 32.986 43.0918 33.152 43.1478 33.304C43.2078 33.452 43.2938 33.58 43.4058 33.688C43.5178 33.796 43.6558 33.88 43.8198 33.94C43.9838 34 44.1738 34.03 44.3898 34.03ZM46.3158 37.33C46.3158 37.182 46.2738 37.062 46.1898 36.97C46.1058 36.878 45.9918 36.806 45.8478 36.754C45.7078 36.702 45.5438 36.666 45.3558 36.646C45.1678 36.622 44.9678 36.604 44.7558 36.592C44.5478 36.58 44.3358 36.568 44.1198 36.556C43.9038 36.544 43.6958 36.524 43.4958 36.496C43.2718 36.6 43.0878 36.732 42.9438 36.892C42.8038 37.048 42.7338 37.232 42.7338 37.444C42.7338 37.58 42.7678 37.706 42.8358 37.822C42.9078 37.942 43.0158 38.044 43.1598 38.128C43.3038 38.216 43.4838 38.284 43.6998 38.332C43.9198 38.384 44.1778 38.41 44.4738 38.41C44.7618 38.41 45.0198 38.384 45.2478 38.332C45.4758 38.28 45.6678 38.206 45.8238 38.11C45.9838 38.014 46.1058 37.9 46.1898 37.768C46.2738 37.636 46.3158 37.49 46.3158 37.33ZM47.4018 31.162V31.558C47.4018 31.69 47.3178 31.774 47.1498 31.81L46.4598 31.9C46.5958 32.164 46.6638 32.456 46.6638 32.776C46.6638 33.072 46.6058 33.342 46.4898 33.586C46.3778 33.826 46.2218 34.032 46.0218 34.204C45.8218 34.376 45.5818 34.508 45.3018 34.6C45.0218 34.692 44.7178 34.738 44.3898 34.738C44.1058 34.738 43.8378 34.704 43.5858 34.636C43.4578 34.716 43.3598 34.802 43.2918 34.894C43.2238 34.982 43.1898 35.072 43.1898 35.164C43.1898 35.308 43.2478 35.418 43.3638 35.494C43.4838 35.566 43.6398 35.618 43.8318 35.65C44.0238 35.682 44.2418 35.702 44.4858 35.71C44.7338 35.718 44.9858 35.732 45.2418 35.752C45.5018 35.768 45.7538 35.798 45.9978 35.842C46.2458 35.886 46.4658 35.958 46.6578 36.058C46.8498 36.158 47.0038 36.296 47.1198 36.472C47.2398 36.648 47.2998 36.876 47.2998 37.156C47.2998 37.416 47.2338 37.668 47.1018 37.912C46.9738 38.156 46.7878 38.372 46.5438 38.56C46.2998 38.752 45.9998 38.904 45.6438 39.016C45.2918 39.132 44.8938 39.19 44.4498 39.19C44.0058 39.19 43.6178 39.146 43.2858 39.058C42.9538 38.97 42.6778 38.852 42.4578 38.704C42.2378 38.556 42.0718 38.384 41.9598 38.188C41.8518 37.996 41.7978 37.794 41.7978 37.582C41.7978 37.282 41.8918 37.028 42.0798 36.82C42.2678 36.612 42.5258 36.446 42.8538 36.322C42.6738 36.242 42.5298 36.136 42.4218 36.004C42.3178 35.868 42.2658 35.686 42.2658 35.458C42.2658 35.37 42.2818 35.28 42.3138 35.188C42.3458 35.092 42.3938 34.998 42.4578 34.906C42.5258 34.81 42.6078 34.72 42.7038 34.636C42.7998 34.552 42.9118 34.478 43.0398 34.414C42.7398 34.246 42.5058 34.024 42.3378 33.748C42.1698 33.468 42.0858 33.144 42.0858 32.776C42.0858 32.48 42.1418 32.212 42.2538 31.972C42.3698 31.728 42.5298 31.522 42.7338 31.354C42.9378 31.182 43.1798 31.05 43.4598 30.958C43.7438 30.866 44.0538 30.82 44.3898 30.82C44.6538 30.82 44.8998 30.85 45.1278 30.91C45.3558 30.966 45.5638 31.05 45.7518 31.162H47.4018ZM49.5142 31.804C49.6462 31.656 49.7862 31.522 49.9342 31.402C50.0822 31.282 50.2382 31.18 50.4022 31.096C50.5702 31.008 50.7462 30.942 50.9302 30.898C51.1182 30.85 51.3202 30.826 51.5362 30.826C51.8682 30.826 52.1602 30.882 52.4122 30.994C52.6682 31.102 52.8802 31.258 53.0482 31.462C53.2202 31.662 53.3502 31.904 53.4382 32.188C53.5262 32.472 53.5702 32.786 53.5702 33.13V37H52.4962V33.13C52.4962 32.67 52.3902 32.314 52.1782 32.062C51.9702 31.806 51.6522 31.678 51.2242 31.678C50.9082 31.678 50.6122 31.754 50.3362 31.906C50.0642 32.058 49.8122 32.264 49.5802 32.524V37H48.5062V30.922H49.1482C49.3002 30.922 49.3942 30.996 49.4302 31.144L49.5142 31.804ZM59.2656 33.298C59.2656 33.05 59.2296 32.824 59.1576 32.62C59.0896 32.412 58.9876 32.234 58.8516 32.086C58.7196 31.934 58.5576 31.818 58.3656 31.738C58.1736 31.654 57.9556 31.612 57.7116 31.612C57.1996 31.612 56.7936 31.762 56.4936 32.062C56.1976 32.358 56.0136 32.77 55.9416 33.298H59.2656ZM60.1296 36.148C59.9976 36.308 59.8396 36.448 59.6556 36.568C59.4716 36.684 59.2736 36.78 59.0616 36.856C58.8536 36.932 58.6376 36.988 58.4136 37.024C58.1896 37.064 57.9676 37.084 57.7476 37.084C57.3276 37.084 56.9396 37.014 56.5836 36.874C56.2316 36.73 55.9256 36.522 55.6656 36.25C55.4096 35.974 55.2096 35.634 55.0656 35.23C54.9216 34.826 54.8496 34.362 54.8496 33.838C54.8496 33.414 54.9136 33.018 55.0416 32.65C55.1736 32.282 55.3616 31.964 55.6056 31.696C55.8496 31.424 56.1476 31.212 56.4996 31.06C56.8516 30.904 57.2476 30.826 57.6876 30.826C58.0516 30.826 58.3876 30.888 58.6956 31.012C59.0076 31.132 59.2756 31.308 59.4996 31.54C59.7276 31.768 59.9056 32.052 60.0336 32.392C60.1616 32.728 60.2256 33.112 60.2256 33.544C60.2256 33.712 60.2076 33.824 60.1716 33.88C60.1356 33.936 60.0676 33.964 59.9676 33.964H55.9056C55.9176 34.348 55.9696 34.682 56.0616 34.966C56.1576 35.25 56.2896 35.488 56.4576 35.68C56.6256 35.868 56.8256 36.01 57.0576 36.106C57.2896 36.198 57.5496 36.244 57.8376 36.244C58.1056 36.244 58.3356 36.214 58.5276 36.154C58.7236 36.09 58.8916 36.022 59.0316 35.95C59.1716 35.878 59.2876 35.812 59.3796 35.752C59.4756 35.688 59.5576 35.656 59.6256 35.656C59.7136 35.656 59.7816 35.69 59.8296 35.758L60.1296 36.148ZM62.5514 32.14C62.7434 31.724 62.9794 31.4 63.2594 31.168C63.5394 30.932 63.8814 30.814 64.2854 30.814C64.4134 30.814 64.5354 30.828 64.6514 30.856C64.7714 30.884 64.8774 30.928 64.9694 30.988L64.8914 31.786C64.8674 31.886 64.8074 31.936 64.7114 31.936C64.6554 31.936 64.5734 31.924 64.4654 31.9C64.3574 31.876 64.2354 31.864 64.0994 31.864C63.9074 31.864 63.7354 31.892 63.5834 31.948C63.4354 32.004 63.3014 32.088 63.1814 32.2C63.0654 32.308 62.9594 32.444 62.8634 32.608C62.7714 32.768 62.6874 32.952 62.6114 33.16V37H61.5374V30.922H62.1494C62.2654 30.922 62.3454 30.944 62.3894 30.988C62.4334 31.032 62.4634 31.108 62.4794 31.216L62.5514 32.14ZM71.0308 32.764C70.6068 32.988 70.2868 33.26 70.0708 33.58C69.8588 33.9 69.7528 34.248 69.7528 34.624C69.7528 34.884 69.8008 35.114 69.8968 35.314C69.9928 35.51 70.1188 35.676 70.2748 35.812C70.4308 35.948 70.6088 36.052 70.8088 36.124C71.0088 36.192 71.2128 36.226 71.4208 36.226C71.8688 36.226 72.2708 36.144 72.6268 35.98C72.9868 35.816 73.3008 35.596 73.5688 35.32L71.0308 32.764ZM76.5748 37H75.5368C75.4208 37 75.3268 36.986 75.2548 36.958C75.1828 36.93 75.1048 36.872 75.0208 36.784L74.1508 35.908C73.7748 36.272 73.3408 36.562 72.8488 36.778C72.3608 36.99 71.8228 37.096 71.2348 37.096C70.9148 37.096 70.6008 37.042 70.2928 36.934C69.9888 36.826 69.7148 36.67 69.4708 36.466C69.2268 36.258 69.0308 36.006 68.8828 35.71C68.7348 35.414 68.6608 35.08 68.6608 34.708C68.6608 34.428 68.7068 34.164 68.7988 33.916C68.8948 33.664 69.0268 33.432 69.1948 33.22C69.3628 33.008 69.5608 32.818 69.7888 32.65C70.0168 32.482 70.2668 32.338 70.5388 32.218C70.2948 31.906 70.1148 31.606 69.9988 31.318C69.8828 31.026 69.8248 30.724 69.8248 30.412C69.8248 30.12 69.8768 29.846 69.9808 29.59C70.0888 29.334 70.2428 29.112 70.4428 28.924C70.6428 28.732 70.8848 28.582 71.1688 28.474C71.4568 28.362 71.7788 28.306 72.1348 28.306C72.4508 28.306 72.7388 28.358 72.9988 28.462C73.2588 28.562 73.4828 28.696 73.6708 28.864C73.8588 29.032 74.0068 29.228 74.1148 29.452C74.2268 29.672 74.2908 29.902 74.3068 30.142L73.6408 30.274C73.5088 30.306 73.4108 30.244 73.3468 30.088C73.3188 29.984 73.2728 29.876 73.2088 29.764C73.1488 29.652 73.0688 29.55 72.9688 29.458C72.8728 29.366 72.7548 29.29 72.6148 29.23C72.4788 29.17 72.3188 29.14 72.1348 29.14C71.9348 29.14 71.7528 29.172 71.5888 29.236C71.4288 29.3 71.2908 29.39 71.1748 29.506C71.0628 29.618 70.9768 29.752 70.9168 29.908C70.8568 30.06 70.8268 30.226 70.8268 30.406C70.8268 30.546 70.8428 30.68 70.8748 30.808C70.9068 30.936 70.9568 31.066 71.0248 31.198C71.0968 31.33 71.1868 31.464 71.2948 31.6C71.4028 31.736 71.5328 31.88 71.6848 32.032L74.1568 34.546C74.3088 34.274 74.4308 33.992 74.5228 33.7C74.6148 33.404 74.6748 33.11 74.7028 32.818C74.7108 32.742 74.7348 32.682 74.7748 32.638C74.8148 32.594 74.8708 32.572 74.9428 32.572H75.5968C75.5928 33.032 75.5208 33.484 75.3808 33.928C75.2408 34.368 75.0388 34.782 74.7748 35.17L76.5748 37ZM87.8281 32.866V36.166C87.3961 36.478 86.9341 36.712 86.4421 36.868C85.9541 37.02 85.4181 37.096 84.8341 37.096C84.1421 37.096 83.5181 36.99 82.9621 36.778C82.4061 36.562 81.9301 36.262 81.5341 35.878C81.1421 35.49 80.8401 35.026 80.6281 34.486C80.4161 33.946 80.3101 33.352 80.3101 32.704C80.3101 32.048 80.4121 31.45 80.6161 30.91C80.8241 30.37 81.1181 29.908 81.4981 29.524C81.8781 29.136 82.3401 28.836 82.8841 28.624C83.4281 28.412 84.0361 28.306 84.7081 28.306C85.0481 28.306 85.3641 28.332 85.6561 28.384C85.9481 28.432 86.2181 28.504 86.4661 28.6C86.7141 28.692 86.9441 28.806 87.1561 28.942C87.3681 29.074 87.5661 29.224 87.7501 29.392L87.4201 29.92C87.3681 30 87.3001 30.052 87.2161 30.076C87.1361 30.096 87.0461 30.076 86.9461 30.016C86.8501 29.96 86.7401 29.892 86.6161 29.812C86.4921 29.732 86.3401 29.656 86.1601 29.584C85.9841 29.508 85.7741 29.444 85.5301 29.392C85.2901 29.34 85.0041 29.314 84.6721 29.314C84.1881 29.314 83.7501 29.394 83.3581 29.554C82.9661 29.71 82.6321 29.936 82.3561 30.232C82.0801 30.524 81.8681 30.88 81.7201 31.3C81.5721 31.716 81.4981 32.184 81.4981 32.704C81.4981 33.244 81.5741 33.728 81.7261 34.156C81.8821 34.58 82.1021 34.942 82.3861 35.242C82.6741 35.538 83.0221 35.764 83.4301 35.92C83.8381 36.076 84.2961 36.154 84.8041 36.154C85.2041 36.154 85.5581 36.11 85.8661 36.022C86.1781 35.93 86.4821 35.804 86.7781 35.644V33.754H85.4401C85.3641 33.754 85.3021 33.732 85.2541 33.688C85.2101 33.644 85.1881 33.59 85.1881 33.526V32.866H87.8281ZM92.6517 34.264C92.1597 34.28 91.7397 34.32 91.3917 34.384C91.0477 34.444 90.7657 34.524 90.5457 34.624C90.3297 34.724 90.1717 34.842 90.0717 34.978C89.9757 35.114 89.9277 35.266 89.9277 35.434C89.9277 35.594 89.9537 35.732 90.0057 35.848C90.0577 35.964 90.1277 36.06 90.2157 36.136C90.3077 36.208 90.4137 36.262 90.5337 36.298C90.6577 36.33 90.7897 36.346 90.9297 36.346C91.1177 36.346 91.2897 36.328 91.4457 36.292C91.6017 36.252 91.7477 36.196 91.8837 36.124C92.0237 36.052 92.1557 35.966 92.2797 35.866C92.4077 35.766 92.5317 35.652 92.6517 35.524V34.264ZM89.2017 31.78C89.5377 31.456 89.8997 31.214 90.2877 31.054C90.6757 30.894 91.1057 30.814 91.5777 30.814C91.9177 30.814 92.2197 30.87 92.4837 30.982C92.7477 31.094 92.9697 31.25 93.1497 31.45C93.3297 31.65 93.4657 31.892 93.5577 32.176C93.6497 32.46 93.6957 32.772 93.6957 33.112V37H93.2217C93.1177 37 93.0377 36.984 92.9817 36.952C92.9257 36.916 92.8817 36.848 92.8497 36.748L92.7297 36.172C92.5697 36.32 92.4137 36.452 92.2617 36.568C92.1097 36.68 91.9497 36.776 91.7817 36.856C91.6137 36.932 91.4337 36.99 91.2417 37.03C91.0537 37.074 90.8437 37.096 90.6117 37.096C90.3757 37.096 90.1537 37.064 89.9457 37C89.7377 36.932 89.5557 36.832 89.3997 36.7C89.2477 36.568 89.1257 36.402 89.0337 36.202C88.9457 35.998 88.9017 35.758 88.9017 35.482C88.9017 35.242 88.9677 35.012 89.0997 34.792C89.2317 34.568 89.4457 34.37 89.7417 34.198C90.0377 34.026 90.4237 33.886 90.8997 33.778C91.3757 33.666 91.9597 33.602 92.6517 33.586V33.112C92.6517 32.64 92.5497 32.284 92.3457 32.044C92.1417 31.8 91.8437 31.678 91.4517 31.678C91.1877 31.678 90.9657 31.712 90.7857 31.78C90.6097 31.844 90.4557 31.918 90.3237 32.002C90.1957 32.082 90.0837 32.156 89.9877 32.224C89.8957 32.288 89.8037 32.32 89.7117 32.32C89.6397 32.32 89.5777 32.302 89.5257 32.266C89.4737 32.226 89.4297 32.178 89.3937 32.122L89.2017 31.78ZM95.3226 37V30.922H95.9646C96.1166 30.922 96.2106 30.996 96.2466 31.144L96.3246 31.768C96.5486 31.492 96.8006 31.266 97.0806 31.09C97.3606 30.914 97.6846 30.826 98.0526 30.826C98.4606 30.826 98.7906 30.94 99.0426 31.168C99.2986 31.396 99.4826 31.704 99.5946 32.092C99.6826 31.872 99.7946 31.682 99.9306 31.522C100.071 31.362 100.227 31.23 100.399 31.126C100.571 31.022 100.753 30.946 100.945 30.898C101.141 30.85 101.339 30.826 101.539 30.826C101.859 30.826 102.143 30.878 102.391 30.982C102.643 31.082 102.855 31.23 103.027 31.426C103.203 31.622 103.337 31.864 103.429 32.152C103.521 32.436 103.567 32.762 103.567 33.13V37H102.493V33.13C102.493 32.654 102.389 32.294 102.181 32.05C101.973 31.802 101.673 31.678 101.281 31.678C101.105 31.678 100.937 31.71 100.777 31.774C100.621 31.834 100.483 31.924 100.363 32.044C100.243 32.164 100.147 32.316 100.075 32.5C100.007 32.68 99.9726 32.89 99.9726 33.13V37H98.8986V33.13C98.8986 32.642 98.8006 32.278 98.6046 32.038C98.4086 31.798 98.1226 31.678 97.7466 31.678C97.4826 31.678 97.2386 31.75 97.0146 31.894C96.7906 32.034 96.5846 32.226 96.3966 32.47V37H95.3226ZM109.258 33.298C109.258 33.05 109.222 32.824 109.15 32.62C109.082 32.412 108.98 32.234 108.844 32.086C108.712 31.934 108.55 31.818 108.358 31.738C108.166 31.654 107.948 31.612 107.704 31.612C107.192 31.612 106.786 31.762 106.486 32.062C106.19 32.358 106.006 32.77 105.934 33.298H109.258ZM110.122 36.148C109.99 36.308 109.832 36.448 109.648 36.568C109.464 36.684 109.266 36.78 109.054 36.856C108.846 36.932 108.63 36.988 108.406 37.024C108.182 37.064 107.96 37.084 107.74 37.084C107.32 37.084 106.932 37.014 106.576 36.874C106.224 36.73 105.918 36.522 105.658 36.25C105.402 35.974 105.202 35.634 105.058 35.23C104.914 34.826 104.842 34.362 104.842 33.838C104.842 33.414 104.906 33.018 105.034 32.65C105.166 32.282 105.354 31.964 105.598 31.696C105.842 31.424 106.14 31.212 106.492 31.06C106.844 30.904 107.24 30.826 107.68 30.826C108.044 30.826 108.38 30.888 108.688 31.012C109 31.132 109.268 31.308 109.492 31.54C109.72 31.768 109.898 32.052 110.026 32.392C110.154 32.728 110.218 33.112 110.218 33.544C110.218 33.712 110.2 33.824 110.164 33.88C110.128 33.936 110.06 33.964 109.96 33.964H105.898C105.91 34.348 105.962 34.682 106.054 34.966C106.15 35.25 106.282 35.488 106.45 35.68C106.618 35.868 106.818 36.01 107.05 36.106C107.282 36.198 107.542 36.244 107.83 36.244C108.098 36.244 108.328 36.214 108.52 36.154C108.716 36.09 108.884 36.022 109.024 35.95C109.164 35.878 109.28 35.812 109.372 35.752C109.468 35.688 109.55 35.656 109.618 35.656C109.706 35.656 109.774 35.69 109.822 35.758L110.122 36.148ZM112.604 35.536C112.8 35.8 113.014 35.986 113.246 36.094C113.478 36.202 113.738 36.256 114.026 36.256C114.594 36.256 115.03 36.054 115.334 35.65C115.638 35.246 115.79 34.67 115.79 33.922C115.79 33.526 115.754 33.186 115.682 32.902C115.614 32.618 115.514 32.386 115.382 32.206C115.25 32.022 115.088 31.888 114.896 31.804C114.704 31.72 114.486 31.678 114.242 31.678C113.894 31.678 113.588 31.758 113.324 31.918C113.064 32.078 112.824 32.304 112.604 32.596V35.536ZM112.55 31.864C112.806 31.548 113.102 31.294 113.438 31.102C113.774 30.91 114.158 30.814 114.59 30.814C114.942 30.814 115.26 30.882 115.544 31.018C115.828 31.15 116.07 31.348 116.27 31.612C116.47 31.872 116.624 32.196 116.732 32.584C116.84 32.972 116.894 33.418 116.894 33.922C116.894 34.37 116.834 34.788 116.714 35.176C116.594 35.56 116.42 35.894 116.192 36.178C115.968 36.458 115.692 36.68 115.364 36.844C115.04 37.004 114.674 37.084 114.266 37.084C113.894 37.084 113.574 37.022 113.306 36.898C113.042 36.77 112.808 36.594 112.604 36.37V39.058H111.53V30.922H112.172C112.324 30.922 112.418 30.996 112.454 31.144L112.55 31.864ZM119.36 28.162V37H118.292V28.162H119.36ZM124.386 34.264C123.894 34.28 123.474 34.32 123.126 34.384C122.782 34.444 122.5 34.524 122.28 34.624C122.064 34.724 121.906 34.842 121.806 34.978C121.71 35.114 121.662 35.266 121.662 35.434C121.662 35.594 121.688 35.732 121.74 35.848C121.792 35.964 121.862 36.06 121.95 36.136C122.042 36.208 122.148 36.262 122.268 36.298C122.392 36.33 122.524 36.346 122.664 36.346C122.852 36.346 123.024 36.328 123.18 36.292C123.336 36.252 123.482 36.196 123.618 36.124C123.758 36.052 123.89 35.966 124.014 35.866C124.142 35.766 124.266 35.652 124.386 35.524V34.264ZM120.936 31.78C121.272 31.456 121.634 31.214 122.022 31.054C122.41 30.894 122.84 30.814 123.312 30.814C123.652 30.814 123.954 30.87 124.218 30.982C124.482 31.094 124.704 31.25 124.884 31.45C125.064 31.65 125.2 31.892 125.292 32.176C125.384 32.46 125.43 32.772 125.43 33.112V37H124.956C124.852 37 124.772 36.984 124.716 36.952C124.66 36.916 124.616 36.848 124.584 36.748L124.464 36.172C124.304 36.32 124.148 36.452 123.996 36.568C123.844 36.68 123.684 36.776 123.516 36.856C123.348 36.932 123.168 36.99 122.976 37.03C122.788 37.074 122.578 37.096 122.346 37.096C122.11 37.096 121.888 37.064 121.68 37C121.472 36.932 121.29 36.832 121.134 36.7C120.982 36.568 120.86 36.402 120.768 36.202C120.68 35.998 120.636 35.758 120.636 35.482C120.636 35.242 120.702 35.012 120.834 34.792C120.966 34.568 121.18 34.37 121.476 34.198C121.772 34.026 122.158 33.886 122.634 33.778C123.11 33.666 123.694 33.602 124.386 33.586V33.112C124.386 32.64 124.284 32.284 124.08 32.044C123.876 31.8 123.578 31.678 123.186 31.678C122.922 31.678 122.7 31.712 122.52 31.78C122.344 31.844 122.19 31.918 122.058 32.002C121.93 32.082 121.818 32.156 121.722 32.224C121.63 32.288 121.538 32.32 121.446 32.32C121.374 32.32 121.312 32.302 121.26 32.266C121.208 32.226 121.164 32.178 121.128 32.122L120.936 31.78ZM132.301 30.922L128.911 38.794C128.875 38.874 128.829 38.938 128.773 38.986C128.721 39.034 128.639 39.058 128.527 39.058H127.735L128.845 36.646L126.337 30.922H127.261C127.353 30.922 127.425 30.946 127.477 30.994C127.533 31.038 127.571 31.088 127.591 31.144L129.217 34.972C129.281 35.14 129.335 35.316 129.379 35.5C129.435 35.312 129.495 35.134 129.559 34.966L131.137 31.144C131.161 31.08 131.201 31.028 131.257 30.988C131.317 30.944 131.383 30.922 131.455 30.922H132.301ZM137.389 35.536C137.585 35.8 137.799 35.986 138.031 36.094C138.263 36.202 138.523 36.256 138.811 36.256C139.379 36.256 139.815 36.054 140.119 35.65C140.423 35.246 140.575 34.67 140.575 33.922C140.575 33.526 140.539 33.186 140.467 32.902C140.399 32.618 140.299 32.386 140.167 32.206C140.035 32.022 139.873 31.888 139.681 31.804C139.489 31.72 139.271 31.678 139.027 31.678C138.679 31.678 138.373 31.758 138.109 31.918C137.849 32.078 137.609 32.304 137.389 32.596V35.536ZM137.335 31.864C137.591 31.548 137.887 31.294 138.223 31.102C138.559 30.91 138.943 30.814 139.375 30.814C139.727 30.814 140.045 30.882 140.329 31.018C140.613 31.15 140.855 31.348 141.055 31.612C141.255 31.872 141.409 32.196 141.517 32.584C141.625 32.972 141.679 33.418 141.679 33.922C141.679 34.37 141.619 34.788 141.499 35.176C141.379 35.56 141.205 35.894 140.977 36.178C140.753 36.458 140.477 36.68 140.149 36.844C139.825 37.004 139.459 37.084 139.051 37.084C138.679 37.084 138.359 37.022 138.091 36.898C137.827 36.77 137.593 36.594 137.389 36.37V39.058H136.315V30.922H136.957C137.109 30.922 137.203 30.996 137.239 31.144L137.335 31.864ZM144.055 32.14C144.247 31.724 144.483 31.4 144.763 31.168C145.043 30.932 145.385 30.814 145.789 30.814C145.917 30.814 146.039 30.828 146.155 30.856C146.275 30.884 146.381 30.928 146.473 30.988L146.395 31.786C146.371 31.886 146.311 31.936 146.215 31.936C146.159 31.936 146.077 31.924 145.969 31.9C145.861 31.876 145.739 31.864 145.603 31.864C145.411 31.864 145.239 31.892 145.087 31.948C144.939 32.004 144.805 32.088 144.685 32.2C144.569 32.308 144.463 32.444 144.367 32.608C144.275 32.768 144.191 32.952 144.115 33.16V37H143.041V30.922H143.653C143.769 30.922 143.849 30.944 143.893 30.988C143.937 31.032 143.967 31.108 143.983 31.216L144.055 32.14ZM149.974 30.826C150.418 30.826 150.818 30.9 151.174 31.048C151.53 31.196 151.834 31.406 152.086 31.678C152.338 31.95 152.53 32.28 152.662 32.668C152.798 33.052 152.866 33.482 152.866 33.958C152.866 34.438 152.798 34.87 152.662 35.254C152.53 35.638 152.338 35.966 152.086 36.238C151.834 36.51 151.53 36.72 151.174 36.868C150.818 37.012 150.418 37.084 149.974 37.084C149.526 37.084 149.122 37.012 148.762 36.868C148.406 36.72 148.102 36.51 147.85 36.238C147.598 35.966 147.404 35.638 147.268 35.254C147.136 34.87 147.07 34.438 147.07 33.958C147.07 33.482 147.136 33.052 147.268 32.668C147.404 32.28 147.598 31.95 147.85 31.678C148.102 31.406 148.406 31.196 148.762 31.048C149.122 30.9 149.526 30.826 149.974 30.826ZM149.974 36.25C150.574 36.25 151.022 36.05 151.318 35.65C151.614 35.246 151.762 34.684 151.762 33.964C151.762 33.24 151.614 32.676 151.318 32.272C151.022 31.868 150.574 31.666 149.974 31.666C149.67 31.666 149.404 31.718 149.176 31.822C148.952 31.926 148.764 32.076 148.612 32.272C148.464 32.468 148.352 32.71 148.276 32.998C148.204 33.282 148.168 33.604 148.168 33.964C148.168 34.684 148.316 35.246 148.612 35.65C148.912 36.05 149.366 36.25 149.974 36.25ZM156.339 34.03C156.555 34.03 156.745 34 156.909 33.94C157.073 33.88 157.211 33.796 157.323 33.688C157.435 33.58 157.519 33.452 157.575 33.304C157.631 33.152 157.659 32.986 157.659 32.806C157.659 32.434 157.545 32.138 157.317 31.918C157.093 31.698 156.767 31.588 156.339 31.588C155.907 31.588 155.577 31.698 155.349 31.918C155.125 32.138 155.013 32.434 155.013 32.806C155.013 32.986 155.041 33.152 155.097 33.304C155.157 33.452 155.243 33.58 155.355 33.688C155.467 33.796 155.605 33.88 155.769 33.94C155.933 34 156.123 34.03 156.339 34.03ZM158.265 37.33C158.265 37.182 158.223 37.062 158.139 36.97C158.055 36.878 157.941 36.806 157.797 36.754C157.657 36.702 157.493 36.666 157.305 36.646C157.117 36.622 156.917 36.604 156.705 36.592C156.497 36.58 156.285 36.568 156.069 36.556C155.853 36.544 155.645 36.524 155.445 36.496C155.221 36.6 155.037 36.732 154.893 36.892C154.753 37.048 154.683 37.232 154.683 37.444C154.683 37.58 154.717 37.706 154.785 37.822C154.857 37.942 154.965 38.044 155.109 38.128C155.253 38.216 155.433 38.284 155.649 38.332C155.869 38.384 156.127 38.41 156.423 38.41C156.711 38.41 156.969 38.384 157.197 38.332C157.425 38.28 157.617 38.206 157.773 38.11C157.933 38.014 158.055 37.9 158.139 37.768C158.223 37.636 158.265 37.49 158.265 37.33ZM159.351 31.162V31.558C159.351 31.69 159.267 31.774 159.099 31.81L158.409 31.9C158.545 32.164 158.613 32.456 158.613 32.776C158.613 33.072 158.555 33.342 158.439 33.586C158.327 33.826 158.171 34.032 157.971 34.204C157.771 34.376 157.531 34.508 157.251 34.6C156.971 34.692 156.667 34.738 156.339 34.738C156.055 34.738 155.787 34.704 155.535 34.636C155.407 34.716 155.309 34.802 155.241 34.894C155.173 34.982 155.139 35.072 155.139 35.164C155.139 35.308 155.197 35.418 155.313 35.494C155.433 35.566 155.589 35.618 155.781 35.65C155.973 35.682 156.191 35.702 156.435 35.71C156.683 35.718 156.935 35.732 157.191 35.752C157.451 35.768 157.703 35.798 157.947 35.842C158.195 35.886 158.415 35.958 158.607 36.058C158.799 36.158 158.953 36.296 159.069 36.472C159.189 36.648 159.249 36.876 159.249 37.156C159.249 37.416 159.183 37.668 159.051 37.912C158.923 38.156 158.737 38.372 158.493 38.56C158.249 38.752 157.949 38.904 157.593 39.016C157.241 39.132 156.843 39.19 156.399 39.19C155.955 39.19 155.567 39.146 155.235 39.058C154.903 38.97 154.627 38.852 154.407 38.704C154.187 38.556 154.021 38.384 153.909 38.188C153.801 37.996 153.747 37.794 153.747 37.582C153.747 37.282 153.841 37.028 154.029 36.82C154.217 36.612 154.475 36.446 154.803 36.322C154.623 36.242 154.479 36.136 154.371 36.004C154.267 35.868 154.215 35.686 154.215 35.458C154.215 35.37 154.231 35.28 154.263 35.188C154.295 35.092 154.343 34.998 154.407 34.906C154.475 34.81 154.557 34.72 154.653 34.636C154.749 34.552 154.861 34.478 154.989 34.414C154.689 34.246 154.455 34.024 154.287 33.748C154.119 33.468 154.035 33.144 154.035 32.776C154.035 32.48 154.091 32.212 154.203 31.972C154.319 31.728 154.479 31.522 154.683 31.354C154.887 31.182 155.129 31.05 155.409 30.958C155.693 30.866 156.003 30.82 156.339 30.82C156.603 30.82 156.849 30.85 157.077 30.91C157.305 30.966 157.513 31.05 157.701 31.162H159.351ZM161.469 32.14C161.661 31.724 161.897 31.4 162.177 31.168C162.457 30.932 162.799 30.814 163.203 30.814C163.331 30.814 163.453 30.828 163.569 30.856C163.689 30.884 163.795 30.928 163.887 30.988L163.809 31.786C163.785 31.886 163.725 31.936 163.629 31.936C163.573 31.936 163.491 31.924 163.383 31.9C163.275 31.876 163.153 31.864 163.017 31.864C162.825 31.864 162.653 31.892 162.501 31.948C162.353 32.004 162.219 32.088 162.099 32.2C161.983 32.308 161.877 32.444 161.781 32.608C161.689 32.768 161.605 32.952 161.529 33.16V37H160.455V30.922H161.067C161.183 30.922 161.263 30.944 161.307 30.988C161.351 31.032 161.381 31.108 161.397 31.216L161.469 32.14ZM168.12 34.264C167.628 34.28 167.208 34.32 166.86 34.384C166.516 34.444 166.234 34.524 166.014 34.624C165.798 34.724 165.64 34.842 165.54 34.978C165.444 35.114 165.396 35.266 165.396 35.434C165.396 35.594 165.422 35.732 165.474 35.848C165.526 35.964 165.596 36.06 165.684 36.136C165.776 36.208 165.882 36.262 166.002 36.298C166.126 36.33 166.258 36.346 166.398 36.346C166.586 36.346 166.758 36.328 166.914 36.292C167.07 36.252 167.216 36.196 167.352 36.124C167.492 36.052 167.624 35.966 167.748 35.866C167.876 35.766 168 35.652 168.12 35.524V34.264ZM164.67 31.78C165.006 31.456 165.368 31.214 165.756 31.054C166.144 30.894 166.574 30.814 167.046 30.814C167.386 30.814 167.688 30.87 167.952 30.982C168.216 31.094 168.438 31.25 168.618 31.45C168.798 31.65 168.934 31.892 169.026 32.176C169.118 32.46 169.164 32.772 169.164 33.112V37H168.69C168.586 37 168.506 36.984 168.45 36.952C168.394 36.916 168.35 36.848 168.318 36.748L168.198 36.172C168.038 36.32 167.882 36.452 167.73 36.568C167.578 36.68 167.418 36.776 167.25 36.856C167.082 36.932 166.902 36.99 166.71 37.03C166.522 37.074 166.312 37.096 166.08 37.096C165.844 37.096 165.622 37.064 165.414 37C165.206 36.932 165.024 36.832 164.868 36.7C164.716 36.568 164.594 36.402 164.502 36.202C164.414 35.998 164.37 35.758 164.37 35.482C164.37 35.242 164.436 35.012 164.568 34.792C164.7 34.568 164.914 34.37 165.21 34.198C165.506 34.026 165.892 33.886 166.368 33.778C166.844 33.666 167.428 33.602 168.12 33.586V33.112C168.12 32.64 168.018 32.284 167.814 32.044C167.61 31.8 167.312 31.678 166.92 31.678C166.656 31.678 166.434 31.712 166.254 31.78C166.078 31.844 165.924 31.918 165.792 32.002C165.664 32.082 165.552 32.156 165.456 32.224C165.364 32.288 165.272 32.32 165.18 32.32C165.108 32.32 165.046 32.302 164.994 32.266C164.942 32.226 164.898 32.178 164.862 32.122L164.67 31.78ZM170.791 37V30.922H171.433C171.585 30.922 171.679 30.996 171.715 31.144L171.793 31.768C172.017 31.492 172.269 31.266 172.549 31.09C172.829 30.914 173.153 30.826 173.521 30.826C173.929 30.826 174.259 30.94 174.511 31.168C174.767 31.396 174.951 31.704 175.063 32.092C175.151 31.872 175.263 31.682 175.399 31.522C175.539 31.362 175.695 31.23 175.867 31.126C176.039 31.022 176.221 30.946 176.413 30.898C176.609 30.85 176.807 30.826 177.007 30.826C177.327 30.826 177.611 30.878 177.859 30.982C178.111 31.082 178.323 31.23 178.495 31.426C178.671 31.622 178.805 31.864 178.897 32.152C178.989 32.436 179.035 32.762 179.035 33.13V37H177.961V33.13C177.961 32.654 177.857 32.294 177.649 32.05C177.441 31.802 177.141 31.678 176.749 31.678C176.573 31.678 176.405 31.71 176.245 31.774C176.089 31.834 175.951 31.924 175.831 32.044C175.711 32.164 175.615 32.316 175.543 32.5C175.475 32.68 175.441 32.89 175.441 33.13V37H174.367V33.13C174.367 32.642 174.269 32.278 174.073 32.038C173.877 31.798 173.591 31.678 173.215 31.678C172.951 31.678 172.707 31.75 172.483 31.894C172.259 32.034 172.053 32.226 171.865 32.47V37H170.791ZM180.659 37V30.922H181.301C181.453 30.922 181.547 30.996 181.583 31.144L181.661 31.768C181.885 31.492 182.137 31.266 182.417 31.09C182.697 30.914 183.021 30.826 183.389 30.826C183.797 30.826 184.127 30.94 184.379 31.168C184.635 31.396 184.819 31.704 184.931 32.092C185.019 31.872 185.131 31.682 185.267 31.522C185.407 31.362 185.563 31.23 185.735 31.126C185.907 31.022 186.089 30.946 186.281 30.898C186.477 30.85 186.675 30.826 186.875 30.826C187.195 30.826 187.479 30.878 187.727 30.982C187.979 31.082 188.191 31.23 188.363 31.426C188.539 31.622 188.673 31.864 188.765 32.152C188.857 32.436 188.903 32.762 188.903 33.13V37H187.829V33.13C187.829 32.654 187.725 32.294 187.517 32.05C187.309 31.802 187.009 31.678 186.617 31.678C186.441 31.678 186.273 31.71 186.113 31.774C185.957 31.834 185.819 31.924 185.699 32.044C185.579 32.164 185.483 32.316 185.411 32.5C185.343 32.68 185.309 32.89 185.309 33.13V37H184.235V33.13C184.235 32.642 184.137 32.278 183.941 32.038C183.745 31.798 183.459 31.678 183.083 31.678C182.819 31.678 182.575 31.75 182.351 31.894C182.127 32.034 181.921 32.226 181.733 32.47V37H180.659ZM194.594 33.298C194.594 33.05 194.558 32.824 194.486 32.62C194.418 32.412 194.316 32.234 194.18 32.086C194.048 31.934 193.886 31.818 193.694 31.738C193.502 31.654 193.284 31.612 193.04 31.612C192.528 31.612 192.122 31.762 191.822 32.062C191.526 32.358 191.342 32.77 191.27 33.298H194.594ZM195.458 36.148C195.326 36.308 195.168 36.448 194.984 36.568C194.8 36.684 194.602 36.78 194.39 36.856C194.182 36.932 193.966 36.988 193.742 37.024C193.518 37.064 193.296 37.084 193.076 37.084C192.656 37.084 192.268 37.014 191.912 36.874C191.56 36.73 191.254 36.522 190.994 36.25C190.738 35.974 190.538 35.634 190.394 35.23C190.25 34.826 190.178 34.362 190.178 33.838C190.178 33.414 190.242 33.018 190.37 32.65C190.502 32.282 190.69 31.964 190.934 31.696C191.178 31.424 191.476 31.212 191.828 31.06C192.18 30.904 192.576 30.826 193.016 30.826C193.38 30.826 193.716 30.888 194.024 31.012C194.336 31.132 194.604 31.308 194.828 31.54C195.056 31.768 195.234 32.052 195.362 32.392C195.49 32.728 195.554 33.112 195.554 33.544C195.554 33.712 195.536 33.824 195.5 33.88C195.464 33.936 195.396 33.964 195.296 33.964H191.234C191.246 34.348 191.298 34.682 191.39 34.966C191.486 35.25 191.618 35.488 191.786 35.68C191.954 35.868 192.154 36.01 192.386 36.106C192.618 36.198 192.878 36.244 193.166 36.244C193.434 36.244 193.664 36.214 193.856 36.154C194.052 36.09 194.22 36.022 194.36 35.95C194.5 35.878 194.616 35.812 194.708 35.752C194.804 35.688 194.886 35.656 194.954 35.656C195.042 35.656 195.11 35.69 195.158 35.758L195.458 36.148ZM197.88 32.14C198.072 31.724 198.308 31.4 198.588 31.168C198.868 30.932 199.21 30.814 199.614 30.814C199.742 30.814 199.864 30.828 199.98 30.856C200.1 30.884 200.206 30.928 200.298 30.988L200.22 31.786C200.196 31.886 200.136 31.936 200.04 31.936C199.984 31.936 199.902 31.924 199.794 31.9C199.686 31.876 199.564 31.864 199.428 31.864C199.236 31.864 199.064 31.892 198.912 31.948C198.764 32.004 198.63 32.088 198.51 32.2C198.394 32.308 198.288 32.444 198.192 32.608C198.1 32.768 198.016 32.952 197.94 33.16V37H196.866V30.922H197.478C197.594 30.922 197.674 30.944 197.718 30.988C197.762 31.032 197.792 31.108 197.808 31.216L197.88 32.14Z" fill="#999999"/>
</svg>
